# File created by Blade
# Date/Time:  Tue Jan 27 17:01:45 2015
#---------------------------------------------------------
:version 1.10
:name HOM
:units
  mass 1.0
  length 1.000000
  angle deg
:documentation
     Acclaim Skeleton File
:root
   axis xyz
   order TX TY TZ RX RY RZ
   position 0.000000 0.000000 0.000000
   orientation 0 0 0
:bonedata
   begin
      id 1
      name Spine_dum
      direction 0.000000 1.000000 0.000000
      length 7.539951
      axis 0.0 0.0 0.0 xyz
   end
   begin
      id 2
      name LeftUpLeg_dum
      direction 1.000000 0.000000 0.000000
      length 3.345476
      axis 0.0 0.0 0.0 xyz
   end
   begin
      id 3
      name RightUpLeg_dum
      direction -1.000000 0.000000 0.000000
      length 3.345476
      axis 0.0 0.0 0.0 xyz
   end
   begin
      id 4
      name Spine
      direction 0.000000 1.000000 0.000000
      length 0.000000
      axis 0.0 0.0 0.0 xyz
      dof rx ry rz
   end
   begin
      id 5
      name Spine_dum1
      direction 0.000000 1.000000 0.000000
      length 15.093809
      axis 0.0 0.0 0.0 xyz
   end
   begin
      id 6
      name Spine_dum2
      direction 0.000000 1.000000 0.000000
      length 9.738928
      axis 0.0 0.0 0.0 xyz
   end
   begin
      id 7
      name Spine_dum3
      direction 0.000000 1.000000 0.000000
      length 9.738928
      axis 0.0 0.0 0.0 xyz
   end
   begin
      id 8
      name Head
      direction 0.000000 1.000000 0.000000
      length 4.527550
      axis 0.0 0.0 0.0 xyz
      dof rx ry rz
   end
   begin
      id 9
      name LeftShoulder
      direction 1.000000 0.000000 0.000000
      length 7.084015
      axis 0.0 0.0 -90.0 xyz
      dof rx ry rz
   end
   begin
      id 10
      name LeftArm
      direction 1.000000 0.000000 0.000000
      length 10.259319
      axis 0.0 0.0 -90.0 xyz
      dof rx ry rz
   end
   begin
      id 11
      name LeftForeArm
      direction 1.000000 0.000000 0.000000
      length 9.896984
      axis 0.0 0.0 -90.0 xyz
      dof ry rz rx
   end
   begin
      id 12
      name LeftHand
      direction 0.000000 0.000000 0.000000
      length 0.000000
      axis 0.0 0.0 -90.0 xyz
      dof rx ry rz
   end
   begin
      id 13
      name LeftHand_dum1
      direction 0.000000 0.000000 0.000000
      length 0.000000
      axis 0.0 0.0 -90.0 xyz
   end
   begin
      id 14
      name LeftHand_dum2
      direction 1.000000 0.000000 0.000000
      length 3.937000
      axis 0.0 0.0 -90.0 xyz
   end
   begin
      id 15
      name LeftHandThumb1
      direction 0.000000 0.000000 1.000000
      length 3.937000
      axis 0.0 0.0 -90.0 xyz
      dof rx rz ry
   end
   begin
      id 16
      name RightShoulder
      direction -1.000000 0.000000 0.000000
      length 7.084015
      axis 0.0 0.0 90.0 xyz
      dof rx ry rz
   end
   begin
      id 17
      name RightArm
      direction -1.000000 0.000000 0.000000
      length 10.259319
      axis 0.0 0.0 90.0 xyz
      dof rx ry rz
   end
   begin
      id 18
      name RightForeArm
      direction -1.000000 0.000000 0.000000
      length 9.896984
      axis 0.0 0.0 90.0 xyz
      dof ry rz rx
   end
   begin
      id 19
      name RightHand
      direction 0.000000 0.000000 0.000000
      length 0.000000
      axis 0.0 0.0 90.0 xyz
      dof rx ry rz
   end
   begin
      id 20
      name RightHand_dum1
      direction 0.000000 0.000000 0.000000
      length 0.000000
      axis 0.0 0.0 90.0 xyz
   end
   begin
      id 21
      name RightHand_dum2
      direction -1.000000 0.000000 0.000000
      length 3.937000
      axis 0.0 0.0 90.0 xyz
   end
   begin
      id 22
      name RightHandThumb1
      direction 0.000000 0.000000 1.000000
      length 3.937000
      axis 0.0 0.0 90.0 xyz
      dof rx rz ry
   end
   begin
      id 23
      name LeftUpLeg
      direction 0.000000 -1.000000 0.000000
      length 19.114733
      axis 0.0 0.0 0.0 xyz
      dof rx ry rz
   end
   begin
      id 24
      name LeftLeg
      direction 0.000000 -1.000000 0.000000
      length 16.045604
      axis 0.0 0.0 0.0 xyz
      dof rx ry rz
   end
   begin
      id 25
      name LeftFoot
      direction 0.000000 -0.258819 0.965926
      length 5.543155
      axis 15.0 0.0 0.0 xyz
      dof rx ry rz
   end
   begin
      id 26
      name LeftToeBase
      direction 0.000000 0.000000 1.000000
      length 2.952750
      axis 0.0 0.0 0.0 xyz
      dof rx ry rz
   end
   begin
      id 27
      name RightUpLeg
      direction 0.000000 -1.000000 0.000000
      length 19.114733
      axis 0.0 0.0 0.0 xyz
      dof rx ry rz
   end
   begin
      id 28
      name RightLeg
      direction 0.000000 -1.000000 0.000000
      length 16.045604
      axis 0.0 0.0 0.0 xyz
      dof rx ry rz
   end
   begin
      id 29
      name RightFoot
      direction 0.000000 -0.258819 0.965926
      length 5.543155
      axis 15.0 0.0 0.0 xyz
      dof rx ry rz
   end
   begin
      id 30
      name RightToeBase
      direction 0.000000 0.000000 1.000000
      length 2.952750
      axis 0.0 0.0 0.0 xyz
      dof rx ry rz
   end
:hierarchy
   begin
      root Spine_dum LeftUpLeg_dum RightUpLeg_dum
      Spine_dum Spine
      LeftUpLeg_dum LeftUpLeg
      RightUpLeg_dum RightUpLeg
      Spine Spine_dum1 Spine_dum2 Spine_dum3
      Spine_dum1 Head
      Spine_dum2 LeftShoulder
      Spine_dum3 RightShoulder
      LeftShoulder LeftArm
      LeftArm LeftForeArm
      LeftForeArm LeftHand
      LeftHand LeftHand_dum1 LeftHand_dum2
      LeftHand_dum1 LeftHandThumb1
      RightShoulder RightArm
      RightArm RightForeArm
      RightForeArm RightHand
      RightHand RightHand_dum1 RightHand_dum2
      RightHand_dum1 RightHandThumb1
      LeftUpLeg LeftLeg
      LeftLeg LeftFoot
      LeftFoot LeftToeBase
      RightUpLeg RightLeg
      RightLeg RightFoot
      RightFoot RightToeBase
   end

# File created by Blade
# Date/Time:  Tue Jan 27 17:01:38 2015
# Frame Rate: 120.000 fps
#------------------------------------------------------
:FULLY-SPECIFIED
:DEGREES
1933
root -0.843274 36.878822 4.932252 6.522055 -1.453172 -0.821675
Spine -2.063886 3.260254 -2.856606
Head 1.000445 9.955040 -0.814170
LeftShoulder 0.962521 -4.713234 -3.170693
LeftArm 24.110155 55.771818 -40.267171
LeftForeArm -64.371932 -0.000000 85.754000
LeftHand -23.407655 -0.000000 -20.584569
LeftHandThumb1 -26.253704 0.000000 33.147579
RightShoulder -0.833800 -21.629412 -1.057002
RightArm 25.922889 -32.232395 53.725079
RightForeArm -147.494981 -0.000000 34.473380
RightHand -1.617629 -0.000000 -2.014795
RightHandThumb1 -24.326973 -0.000000 -32.862282
LeftUpLeg -4.045005 14.468324 4.422974
LeftLeg 7.301689 -0.000000 -0.000000
LeftFoot -16.701061 3.605096 -20.959610
LeftToeBase 14.951776 -0.000000 -0.000000
RightUpLeg -6.702895 -9.278891 -1.041830
RightLeg 10.311658 -0.000000 -0.000000
RightFoot -15.343307 -3.286163 13.588071
RightToeBase 10.991898 -0.000000 -0.000000
1934
root -0.842747 36.878947 4.932332 6.524766 -1.506951 -0.825328
Spine -2.046248 3.244616 -2.834749
Head 1.010541 9.978523 -0.816339
LeftShoulder 0.927867 -4.667076 -3.154954
LeftArm 24.097597 55.485377 -40.276684
LeftForeArm -64.149314 -0.000000 85.850956
LeftHand -23.376030 -0.000000 -20.689248
LeftHandThumb1 -26.253704 0.000000 33.147579
RightShoulder -0.854736 -21.618140 -1.046496
RightArm 25.923036 -32.251963 53.729994
RightForeArm -147.496873 0.000000 34.469068
RightHand -1.635505 -0.000000 -1.989553
RightHandThumb1 -24.326973 -0.000000 -32.862282
LeftUpLeg -4.034781 14.498031 4.420586
LeftLeg 7.295651 -0.000000 -0.000000
LeftFoot -16.711352 3.639801 -20.937097
LeftToeBase 14.937910 -0.000000 -0.000000
RightUpLeg -6.723271 -9.272487 -1.038919
RightLeg 10.336397 -0.000000 -0.000000
RightFoot -15.337607 -3.258013 13.613851
RightToeBase 11.004754 -0.000000 -0.000000
1935
root -0.844502 36.879576 4.932194 6.528554 -1.571110 -0.836103
Spine -2.034813 3.243807 -2.816523
Head 1.037274 10.005193 -0.802703
LeftShoulder 0.891746 -4.620342 -3.136381
LeftArm 23.938275 55.085180 -40.431513
LeftForeArm -63.844652 -0.000000 85.973270
LeftHand -23.259897 -0.000000 -20.753938
LeftHandThumb1 -26.253704 0.000000 33.147579
RightShoulder -0.870063 -21.631999 -1.027752
RightArm 25.941463 -32.269311 53.715561
RightForeArm -147.494597 -0.000000 34.461448
RightHand -1.663884 -0.000000 -1.936909
RightHandThumb1 -24.326973 -0.000000 -32.862282
LeftUpLeg -4.022257 14.528945 4.429840
LeftLeg 7.284453 -0.000000 -0.000000
LeftFoot -16.711175 3.664678 -20.977254
LeftToeBase 14.921434 -0.000000 -0.000000
RightUpLeg -6.728217 -9.248524 -1.029777
RightLeg 10.317717 -0.000000 -0.000000
RightFoot -15.319454 -3.176431 13.587597
RightToeBase 11.091629 -0.000000 -0.000000
1936
root -0.847435 36.879793 4.931936 6.536650 -1.616839 -0.848170
Spine -2.030021 3.230078 -2.798735
Head 1.078983 10.016322 -0.773136
LeftShoulder 0.857332 -4.629162 -3.112398
LeftArm 23.598763 54.628343 -40.768811
LeftForeArm -63.611584 -0.000000 86.108943
LeftHand -23.183232 -0.000000 -20.755713
LeftHandThumb1 -26.253704 0.000000 33.147579
RightShoulder -0.878255 -21.653157 -1.007695
RightArm 25.941514 -32.260501 53.714007
RightForeArm -147.488542 -0.000000 34.470147
RightHand -1.637571 0.000000 -1.913636
RightHandThumb1 -24.326973 -0.000000 -32.862282
LeftUpLeg -4.022644 14.569333 4.441577
LeftLeg 7.285033 -0.000000 -0.000000
LeftFoot -16.720474 3.662143 -20.995646
LeftToeBase 14.949195 -0.000000 -0.000000
RightUpLeg -6.731288 -9.216487 -1.017223
RightLeg 10.299802 -0.000000 -0.000000
RightFoot -15.292256 -3.217176 13.587438
RightToeBase 10.972757 -0.000000 -0.000000
1937
root -0.850144 36.880168 4.932812 6.542937 -1.669250 -0.863298
Spine -2.022634 3.221429 -2.776978
Head 1.119728 10.036208 -0.723952
LeftShoulder 0.806383 -4.629723 -3.088223
LeftArm 23.124407 54.032901 -41.242815
LeftForeArm -63.266197 -0.000000 86.272012
LeftHand -23.050374 -0.000000 -20.807050
LeftHandThumb1 -26.253704 0.000000 33.147579
RightShoulder -0.892357 -21.673413 -0.992175
RightArm 25.945241 -32.246435 53.728109
RightForeArm -147.604932 -0.000000 34.467586
RightHand -1.648146 -0.000000 -1.799327
RightHandThumb1 -24.326973 -0.000000 -32.862282
LeftUpLeg -4.014944 14.606883 4.456426
LeftLeg 7.278226 -0.000000 -0.000000
LeftFoot -16.728369 3.677690 -20.987227
LeftToeBase 14.953379 -0.000000 -0.000000
RightUpLeg -6.733247 -9.179443 -1.001128
RightLeg 10.279545 -0.000000 -0.000000
RightFoot -15.279817 -3.198196 13.590435
RightToeBase 11.005953 -0.000000 -0.000000
1938
root -0.861510 36.879785 4.946524 6.464772 -1.567523 -0.906765
Spine -1.931905 3.110122 -2.716102
Head 1.156271 10.010701 -0.682862
LeftShoulder 0.798989 -4.672299 -3.057712
LeftArm 22.339514 53.192230 -42.000881
LeftForeArm -62.064462 0.000000 86.406708
LeftHand -23.096390 -0.000000 -21.682038
LeftHandThumb1 -26.253704 0.000000 33.147579
RightShoulder -0.937170 -21.674694 -0.952892
RightArm 25.908505 -32.233917 53.762542
RightForeArm -147.643477 -0.000000 34.453195
RightHand -1.661352 -0.000000 -1.781123
RightHandThumb1 -24.326973 -0.000000 -32.862282
LeftUpLeg -3.926069 14.542909 4.554226
LeftLeg 7.277157 -0.000000 -0.000000
LeftFoot -16.724929 3.613367 -21.008402
LeftToeBase 14.938501 -0.000000 -0.000000
RightUpLeg -6.583502 -9.328452 -0.942603
RightLeg 10.196689 -0.000000 -0.000000
RightFoot -15.245145 -3.170051 13.572088
RightToeBase 10.968364 -0.000000 -0.000000
1939
root -0.867077 36.879548 4.955323 6.339353 -1.616931 -0.949323
Spine -1.759100 3.134340 -2.653318
Head 1.169413 10.072109 -0.638691
LeftShoulder 0.760494 -4.713179 -3.057302
LeftArm 21.724407 52.391648 -42.638134
LeftForeArm -61.220398 -0.000000 86.465498
LeftHand -22.683727 -0.000000 -22.112916
LeftHandThumb1 -26.253704 0.000000 33.147579
RightShoulder -0.922914 -21.666793 -0.946159
RightArm 25.868012 -32.189201 53.793730
RightForeArm -147.653109 -0.000000 34.439933
RightHand -1.753852 -0.000000 -1.709632
RightHandThumb1 -24.326973 -0.000000 -32.862282
LeftUpLeg -3.759901 14.610883 4.638744
LeftLeg 7.255407 -0.000000 -0.000000
LeftFoot -16.731161 3.580470 -21.005120
LeftToeBase 14.957774 -0.000000 -0.000000
RightUpLeg -6.431435 -9.285067 -0.919380
RightLeg 10.163946 -0.000000 -0.000000
RightFoot -15.221446 -3.167541 13.564118
RightToeBase 11.029465 -0.000000 -0.000000
1940
root -0.867609 36.879554 4.956225 6.322204 -1.685074 -0.949207
Spine -1.718761 3.158280 -2.648729
Head 1.169607 10.086449 -0.590956
LeftShoulder 0.660719 -4.702168 -3.062847
LeftArm 21.417183 51.669101 -43.074470
LeftForeArm -61.649680 -0.000000 86.509055
LeftHand -22.354064 -0.000000 -23.699393
LeftHandThumb1 -26.253704 0.000000 33.147579
RightShoulder -0.930287 -21.678085 -0.937854
RightArm 25.874036 -32.179679 53.803452
RightForeArm -147.625010 0.000000 34.399928
RightHand -1.782968 0.000000 -1.681763
RightHandThumb1 -24.326973 -0.000000 -32.862282
LeftUpLeg -3.722527 14.667828 4.635219
LeftLeg 7.246213 -0.000000 -0.000000
LeftFoot -16.663805 3.619788 -20.793985
LeftToeBase 14.660519 -0.000000 -0.000000
RightUpLeg -6.431865 -9.252452 -0.924011
RightLeg 10.184945 -0.000000 -0.000000
RightFoot -15.226303 -3.149679 13.537470
RightToeBase 11.008377 -0.000000 -0.000000
1941
root -0.868765 36.879325 4.957445 6.313362 -1.724482 -0.946433
Spine -1.696860 3.189339 -2.646698
Head 1.195490 10.076935 -0.545390
LeftShoulder 0.627813 -4.756920 -3.074501
LeftArm 20.623871 50.752033 -43.856198
LeftForeArm -61.561363 -0.000000 86.762194
LeftHand -22.072844 -0.000000 -22.412685
LeftHandThumb1 -26.253704 0.000000 33.147579
RightShoulder -0.937647 -21.672006 -0.927237
RightArm 25.790983 -32.156244 53.863211
RightForeArm -147.675413 -0.000000 34.408615
RightHand -1.704405 0.000000 -1.638908
RightHandThumb1 -24.326973 -0.000000 -32.862282
LeftUpLeg -3.696990 14.676321 4.638045
LeftLeg 7.227739 -0.000000 -0.000000
LeftFoot -16.738559 3.626244 -21.000417
LeftToeBase 14.931590 -0.000000 -0.000000
RightUpLeg -6.431255 -9.239661 -0.928091
RightLeg 10.196185 -0.000000 -0.000000
RightFoot -15.225150 -3.131470 13.520785
RightToeBase 10.992203 -0.000000 -0.000000
1942
root -0.871719 36.879448 4.959147 6.309560 -1.777472 -0.953556
Spine -1.682999 3.236300 -2.641728
Head 1.230042 10.069721 -0.482792
LeftShoulder 0.572684 -4.807611 -3.087010
LeftArm 19.796597 49.693799 -44.689513
LeftForeArm -61.311750 0.000000 86.998223
LeftHand -21.730621 -0.000000 -21.959122
LeftHandThumb1 -26.253704 0.000000 33.147579
RightShoulder -0.964140 -21.710247 -0.901054
RightArm 25.786133 -32.122800 53.872668
RightForeArm -147.694691 -0.000000 34.382659
RightHand -1.653897 -0.000000 -1.692833
RightHandThumb1 -24.326973 -0.000000 -32.862282
LeftUpLeg -3.675312 14.715900 4.649088
LeftLeg 7.217445 -0.000000 -0.000000
LeftFoot -16.757185 3.621198 -21.046754
LeftToeBase 15.010137 -0.000000 -0.000000
RightUpLeg -6.419555 -9.182686 -0.926481
RightLeg 10.173276 -0.000000 -0.000000
RightFoot -15.205103 -3.119250 13.535046
RightToeBase 10.967080 -0.000000 -0.000000
1943
root -0.873748 36.879342 4.960425 6.314401 -1.826705 -0.954383
Spine -1.683244 3.299756 -2.646845
Head 1.286217 10.052154 -0.379765
LeftShoulder 0.520416 -4.842107 -3.088866
LeftArm 19.041843 48.599609 -45.520224
LeftForeArm -61.207642 -0.000000 87.173437
LeftHand -21.479328 0.000000 -22.064085
LeftHandThumb1 -26.253704 0.000000 33.147579
RightShoulder -0.990453 -21.726401 -0.876713
RightArm 25.736862 -32.092112 53.910530
RightForeArm -147.748835 0.000000 34.354590
RightHand -1.667581 -0.000000 -1.761437
RightHandThumb1 -24.326973 -0.000000 -32.862282
LeftUpLeg -3.670290 14.766964 4.645948
LeftLeg 7.216328 -0.000000 -0.000000
LeftFoot -16.749227 3.641726 -21.021206
LeftToeBase 14.965318 -0.000000 -0.000000
RightUpLeg -6.427959 -9.138651 -0.925276
RightLeg 10.172671 -0.000000 -0.000000
RightFoot -15.200008 -3.129581 13.516219
RightToeBase 10.936951 -0.000000 -0.000000
